<svg width="41" height="24" viewBox="0 0 41 24" fill="none" xmlns="http://www.w3.org/2000/svg">
<rect width="41" height="24" rx="4" fill="black" fill-opacity="0.04"/>
<path d="M10.2 17C10.0133 17 9.91997 17 9.84867 16.9637C9.78595 16.9317 9.73496 16.8807 9.703 16.818C9.66667 16.7467 9.66667 16.6534 9.66667 16.4667V11.6667H7L11.6667 7L16.3333 11.6667H13.6667V16.4667C13.6667 16.6534 13.6667 16.7467 13.6303 16.818C13.5984 16.8807 13.5474 16.9317 13.4847 16.9637C13.4134 17 13.32 17 13.1333 17H10.2Z" stroke="black" stroke-opacity="0.4" stroke-linecap="round" stroke-linejoin="round"/>
<path d="M22 11V15M24 13H20" stroke="black" stroke-opacity="0.4" stroke-linecap="round" stroke-linejoin="round"/>
<path d="M27.4785 16.1045L28.1074 15.291C28.4811 15.5781 28.8662 15.79 29.2627 15.9268C29.6592 16.0589 30.124 16.125 30.6572 16.125C31.2588 16.125 31.7487 15.9837 32.127 15.7012C32.5098 15.4186 32.7012 15.0107 32.7012 14.4775C32.7012 13.9945 32.5371 13.6094 32.209 13.3223C31.8809 13.0306 31.3499 12.7549 30.6162 12.4951C29.6865 12.1715 29.0007 11.8024 28.5586 11.3877C28.1165 10.9684 27.8955 10.4147 27.8955 9.72656C27.8955 8.91536 28.1849 8.26367 28.7637 7.77148C29.347 7.2793 30.099 7.0332 31.0195 7.0332C31.4844 7.0332 31.9333 7.09473 32.3662 7.21777C32.7992 7.34082 33.2298 7.53678 33.6582 7.80566L33.1455 8.66016C32.7946 8.45052 32.4437 8.30013 32.0928 8.20898C31.7419 8.11328 31.359 8.06543 30.9443 8.06543C30.3564 8.06543 29.8916 8.20443 29.5498 8.48242C29.2126 8.75586 29.0439 9.13411 29.0439 9.61719C29.0439 10.0501 29.1989 10.3942 29.5088 10.6494C29.8187 10.9046 30.3405 11.1598 31.0742 11.415C32.0677 11.7568 32.7786 12.1488 33.207 12.5908C33.6354 13.0329 33.8496 13.6276 33.8496 14.375C33.8496 15.168 33.5648 15.8311 32.9951 16.3643C32.4255 16.8975 31.6257 17.1641 30.5957 17.1641C29.9759 17.1641 29.4154 17.0775 28.9141 16.9043C28.4128 16.7311 27.9342 16.4645 27.4785 16.1045Z" fill="black" fill-opacity="0.4"/>
</svg>
